<?xml version="1.0" encoding="UTF-8" standalone="no"?>
<!-- Created with Inkscape (http://www.inkscape.org/) -->

<svg
   width="66.630577mm"
   height="31.078222mm"
   viewBox="0 0 66.630577 31.078222"
   version="1.1"
   id="svg5"
   inkscape:version="1.1 (c4e8f9ed74, 2021-05-24)"
   sodipodi:docname="qtile-logo-background.svg"
   xmlns:inkscape="http://www.inkscape.org/namespaces/inkscape"
   xmlns:sodipodi="http://sodipodi.sourceforge.net/DTD/sodipodi-0.dtd"
   xmlns="http://www.w3.org/2000/svg"
   xmlns:svg="http://www.w3.org/2000/svg">
  <sodipodi:namedview
     id="namedview7"
     pagecolor="#ffffff"
     bordercolor="#666666"
     borderopacity="1.0"
     inkscape:pageshadow="2"
     inkscape:pageopacity="0.0"
     inkscape:pagecheckerboard="0"
     inkscape:document-units="mm"
     showgrid="false"
     inkscape:zoom="2.2283873"
     inkscape:cx="79.42964"
     inkscape:cy="98.052974"
     inkscape:window-width="1912"
     inkscape:window-height="1048"
     inkscape:window-x="2"
     inkscape:window-y="26"
     inkscape:window-maximized="1"
     inkscape:current-layer="layer2" />
  <defs
     id="defs2" />
  <g
     inkscape:groupmode="layer"
     id="layer2"
     inkscape:label="Background"
     style="display:inline;opacity:1"
     transform="translate(-63.353001,-59.884506)">
    <rect
       style="fill:#272727;fill-opacity:1;stroke:none;stroke-width:0.264999"
       id="rect26398"
       width="66.365578"
       height="30.813223"
       x="63.4855"
       y="60.017006"
       ry="6.0447521" />
  </g>
  <g
     inkscape:label="Text"
     inkscape:groupmode="layer"
     id="layer1"
     transform="translate(-63.353001,-59.884506)">
    <g
       id="g26576"
       style="fill:#ffffff;fill-opacity:1"
       transform="translate(2.3568073,-0.11711575)">
      <path
         id="text2498"
         style="font-weight:bold;font-size:22.5778px;line-height:1.25;font-family:'Varela Round';-inkscape-font-specification:'Varela Round Bold';letter-spacing:-0.529167px;word-spacing:0px;fill:#ffffff;fill-opacity:1;stroke-width:0.264583"
         d="m 104.75391,66.01563 c -0.36959,0 -0.72291,0.155534 -0.97657,0.425781 -0.25305,0.255791 -0.39453,0.603088 -0.39453,0.966797 V 81.83399 c 0,0.366122 0.14219,0.716408 0.39844,0.972656 0.25625,0.256241 0.60653,0.398437 0.97266,0.398437 0.36371,0 0.71101,-0.141474 0.96679,-0.394531 0.27027,-0.253657 0.42578,-0.606978 0.42578,-0.976562 V 67.408208 c 0,-0.375084 -0.13632,-0.733986 -0.39648,-0.99414 -0.26015,-0.260149 -0.61938,-0.398438 -0.99609,-0.398438 z m -5.048832,0.333985 c -0.398289,0 -0.778332,0.157238 -1.0625,0.441406 -0.283401,0.283401 -0.443359,0.662661 -0.443359,1.0625 v 0.08984 c 0,0.399839 0.160726,0.777913 0.443359,1.060546 0.283401,0.283402 0.662662,0.44336 1.0625,0.44336 h 0.132813 c 0.399839,0 0.779099,-0.159959 1.062499,-0.44336 0.2834,-0.283401 0.44141,-0.662259 0.44141,-1.060546 v -0.08984 c 0,-0.398287 -0.15724,-0.778331 -0.44141,-1.0625 -0.28417,-0.284168 -0.66421,-0.441406 -1.062499,-0.441406 z m -6.65039,2.443359 c -0.259846,0 -0.467836,0.139711 -0.638672,0.310547 l 0.002,-0.0039 -3.023438,2.955078 0.0332,-0.02734 c -0.202389,0.157413 -0.34375,0.413914 -0.34375,0.671875 0,0.196136 0.07209,0.396657 0.197266,0.546875 a 0.37049768,0.37049768 0 0 0 0.04883,0.04883 c 0.150218,0.125181 0.350739,0.197266 0.546875,0.197266 h 1.207031 v 6.517578 c 0,1.046147 0.301896,1.904711 0.933594,2.476562 0.631699,0.571852 1.544095,0.830078 2.681641,0.830078 0.702579,0 1.373977,-0.146613 2,-0.435546 a 0.37049768,0.37049768 0 0 0 0.01758,-0.0078 c 0.427928,-0.223267 0.708984,-0.644172 0.708984,-1.107422 0,-0.308202 -0.132316,-0.608803 -0.357422,-0.818359 -0.217898,-0.21634 -0.509929,-0.351563 -0.8125,-0.351563 -0.119594,0 -0.230279,0.0074 -0.339843,0.0293 a 0.37049768,0.37049768 0 0 0 -0.01758,0.0039 l -0.177735,0.04492 a 0.37049768,0.37049768 0 0 0 -0.01758,0.0039 c -0.263458,0.07904 -0.521516,0.117187 -0.78125,0.117187 -0.363833,0 -0.643494,-0.06618 -0.857422,-0.175781 -0.09947,-0.06576 -0.216796,-0.275791 -0.216797,-0.787109 v -6.339844 h 2.140625 c 0.331459,0 0.65373,-0.122479 0.884766,-0.353516 a 0.37049768,0.37049768 0 0 0 0.01172,-0.01172 c 0.218921,-0.238823 0.341797,-0.55143 0.341796,-0.873047 0,-0.331459 -0.12248,-0.65373 -0.353515,-0.884765 -0.231036,-0.231037 -0.553307,-0.353516 -0.884766,-0.353516 h -2.140625 v -1.40625 c 0,-0.203527 -0.09508,-0.408157 -0.234375,-0.554687 -0.136176,-0.154714 -0.350391,-0.261719 -0.558593,-0.261719 z m 20.326172,2.001953 c -1.22834,0 -2.29456,0.292904 -3.16406,0.888672 -0.85407,0.585195 -1.49682,1.363135 -1.90821,2.3125 -0.40643,0.937917 -0.60937,1.961325 -0.60937,3.058594 0,1.93334 0.53021,3.49635 1.61523,4.613281 a 0.37049768,0.37049768 0 0 0 0.004,0.0039 c 1.0995,1.099502 2.63012,1.644531 4.50781,1.644531 0.91209,0 1.66885,-0.08445 2.28125,-0.261718 0.59353,-0.171813 1.18916,-0.427218 1.78906,-0.765625 a 0.37049768,0.37049768 0 0 0 0.004,-0.002 c 0.45306,-0.261374 0.76367,-0.670466 0.76367,-1.142578 0,-0.338002 -0.13788,-0.668385 -0.38672,-0.896485 -0.23882,-0.218923 -0.55143,-0.341797 -0.87304,-0.341797 -0.19914,0 -0.3938,0.0426 -0.56641,0.128906 -0.42057,0.210288 -0.85252,0.370358 -1.30078,0.482422 a 0.37049768,0.37049768 0 0 0 -0.002,0 c -0.42001,0.10839 -0.93245,0.166016 -1.53125,0.166016 -1.10947,0 -1.91875,-0.268619 -2.48829,-0.773438 -0.48334,-0.428424 -0.76555,-1.033387 -0.92187,-1.773437 h 7.05469 c 0.38519,0 0.74889,-0.135632 1,-0.404297 0.25305,-0.255785 0.39453,-0.603078 0.39453,-0.966797 -10e-6,-1.057027 -0.22099,-2.041906 -0.66016,-2.9375 l -0.002,-0.002 c -0.44222,-0.914894 -1.10011,-1.655073 -1.95313,-2.193359 -0.86511,-0.560724 -1.89215,-0.837891 -3.04687,-0.837891 z M 99.75,70.904302 c -0.371296,0 -0.724798,0.157388 -0.978516,0.427735 -0.253048,0.255787 -0.394531,0.603082 -0.394531,0.966796 v 9.535157 c 0,0.366128 0.142194,0.716411 0.398438,0.972656 0.25713,0.25713 0.60848,0.398437 0.974609,0.398437 0.36372,0 0.71101,-0.141485 0.9668,-0.394531 0.27025,-0.253656 0.42578,-0.606978 0.42578,-0.976562 v -9.535157 c 0,-0.376709 -0.13828,-0.735937 -0.39844,-0.996093 -0.25927,-0.259276 -0.61743,-0.398438 -0.99414,-0.398438 z m 13.63086,2.34375 c 0.44572,0 0.88437,0.103206 1.32812,0.318359 a 0.37049768,0.37049768 0 0 0 0.01,0.0039 c 0.42421,0.192824 0.77359,0.494378 1.06641,0.933593 a 0.37049768,0.37049768 0 0 0 0.004,0.0059 c 0.23152,0.332187 0.36457,0.758561 0.44141,1.240234 h -5.67774 c 0.0751,-0.484464 0.20375,-0.91303 0.42579,-1.246094 0.29281,-0.439215 0.64219,-0.740769 1.0664,-0.933593 a 0.37049768,0.37049768 0 0 0 0.01,-0.0039 c 0.4441,-0.215322 0.88045,-0.318359 1.32617,-0.318359 z" />
      <g
         aria-label=""
         id="text11918"
         style="font-weight:bold;font-size:22.5778px;line-height:1.25;font-family:'Font Awesome 5 Free';-inkscape-font-specification:'Font Awesome 5 Free Bold';letter-spacing:0px;word-spacing:0px;fill:#ffffff;fill-opacity:1;stroke-width:0.264583"
         transform="matrix(-0.61650642,0.61650642,-0.61650642,-0.61650642,175.4634,74.620702)">
        <path
           d="m 85.247702,68.519299 c -0.529167,-0.396875 -1.234723,-0.220486 -1.543404,0.308681 l -0.705557,1.234724 c -0.264583,0.48507 -0.132291,1.058334 0.264584,1.367015 1.94028,1.45521 2.998614,3.660073 3.042711,5.909034 0,4.18924 -3.395489,7.452438 -7.40834,7.452438 -4.145144,0 -7.452439,-3.307295 -7.408341,-7.408341 0,-2.42535 1.146529,-4.586116 2.998614,-5.953131 0.396875,-0.308681 0.529167,-0.881945 0.264583,-1.367015 L 74.046996,68.82798 c -0.308681,-0.529167 -1.014237,-0.705556 -1.543404,-0.308681 -2.778128,1.984378 -4.586116,5.247575 -4.542019,8.907648 0,5.997229 4.938894,10.936123 10.936123,10.892025 6.041325,0 10.936122,-4.894796 10.936122,-10.936122 0,-3.660073 -1.807988,-6.879173 -4.586116,-8.863551 z m -4.586116,9.216329 V 67.152284 c 0,-0.573264 -0.48507,-1.058334 -1.058334,-1.058334 h -1.411113 c -0.617361,0 -1.058334,0.48507 -1.058334,1.058334 v 10.583344 c 0,0.617362 0.440973,1.058335 1.058334,1.058335 h 1.411113 c 0.573264,0 1.058334,-0.440973 1.058334,-1.058335 z"
           id="path19638"
           style="fill:#ffffff;fill-opacity:1" />
      </g>
    </g>
  </g>
  <g
     inkscape:label="Text copy"
     inkscape:groupmode="layer"
     id="g26552"
     style="display:none"
     transform="translate(-63.353001,-59.884506)">
    <path
       id="path26546"
       style="font-style:normal;font-variant:normal;font-weight:bold;font-stretch:normal;font-size:22.5778px;line-height:1.25;font-family:'Varela Round';-inkscape-font-specification:'Varela Round Bold';letter-spacing:-0.529167px;word-spacing:0px;stroke-width:0.264583"
       sodipodi:type="inkscape:offset"
       inkscape:radius="0.37046063"
       inkscape:original="M 104.75391 66.015625 C 104.47239 66.015625 104.23559 66.118739 104.04297 66.326172 C 103.85035 66.518789 103.75391 66.755593 103.75391 67.037109 L 103.75391 81.462891 C 103.75391 81.744407 103.85035 81.981211 104.04297 82.173828 C 104.23559 82.366445 104.47239 82.462891 104.75391 82.462891 C 105.03542 82.462891 105.27223 82.366445 105.46484 82.173828 C 105.67228 81.981211 105.77539 81.744407 105.77539 81.462891 L 105.77539 67.037109 C 105.77539 66.740776 105.6809 66.497304 105.48828 66.304688 C 105.29566 66.112071 105.05024 66.015625 104.75391 66.015625 z M 99.705078 66.349609 C 99.393928 66.349609 99.126547 66.459391 98.904297 66.681641 C 98.682047 66.903891 98.570312 67.171272 98.570312 67.482422 L 98.570312 67.572266 C 98.570312 67.883416 98.682047 68.148844 98.904297 68.371094 C 99.126547 68.593344 99.393928 68.705078 99.705078 68.705078 L 99.837891 68.705078 C 100.14904 68.705078 100.41642 68.593344 100.63867 68.371094 C 100.86092 68.148844 100.9707 67.883416 100.9707 67.572266 L 100.9707 67.482422 C 100.9707 67.171272 100.86092 66.903891 100.63867 66.681641 C 100.41642 66.459391 100.14904 66.349609 99.837891 66.349609 L 99.705078 66.349609 z M 93.054688 68.792969 C 92.936154 68.792969 92.811084 68.860791 92.677734 68.994141 L 89.654297 71.949219 C 89.520947 72.052935 89.455078 72.179958 89.455078 72.328125 C 89.455078 72.446658 89.492323 72.549772 89.566406 72.638672 C 89.655306 72.712755 89.75842 72.75 89.876953 72.75 L 91.455078 72.75 L 91.455078 79.638672 C 91.455078 81.594472 92.535985 82.574219 94.699219 82.574219 C 95.351152 82.574219 95.967072 82.440528 96.544922 82.173828 C 96.885705 81.996028 97.054688 81.735315 97.054688 81.394531 C 97.054688 81.172281 96.97353 80.98801 96.810547 80.839844 C 96.647564 80.67686 96.463293 80.595703 96.255859 80.595703 C 96.152143 80.595703 96.062365 80.602371 95.988281 80.617188 L 95.810547 80.662109 C 95.514214 80.751009 95.218208 80.794922 94.921875 80.794922 C 94.507008 80.794922 94.15847 80.720432 93.876953 80.572266 C 93.610253 80.409282 93.476563 80.038788 93.476562 79.460938 L 93.476562 72.75 L 95.988281 72.75 C 96.240165 72.75 96.448345 72.668843 96.611328 72.505859 C 96.774311 72.328059 96.855469 72.119879 96.855469 71.882812 C 96.855469 71.630929 96.774311 71.422749 96.611328 71.259766 C 96.448345 71.096782 96.240165 71.015625 95.988281 71.015625 L 93.476562 71.015625 L 93.476562 69.238281 C 93.476562 69.119748 93.43265 69.016634 93.34375 68.927734 C 93.269667 68.838834 93.173221 68.792969 93.054688 68.792969 z M 113.38086 70.794922 C 112.21034 70.794922 111.22588 71.068971 110.42578 71.617188 C 109.62568 72.165404 109.03367 72.882484 108.64844 73.771484 C 108.2632 74.660484 108.07031 75.63161 108.07031 76.683594 C 108.07031 78.550494 108.57254 80.001896 109.58008 81.039062 C 110.60243 82.061413 112.01854 82.574219 113.82617 82.574219 C 114.71517 82.574219 115.44087 82.491108 116.00391 82.328125 C 116.56694 82.165142 117.13699 81.92167 117.71484 81.595703 C 118.10008 81.373453 118.29297 81.099404 118.29297 80.773438 C 118.29297 80.521554 118.20514 80.313374 118.02734 80.150391 C 117.84954 79.987407 117.64136 79.90625 117.4043 79.90625 C 117.25613 79.90625 117.12244 79.936827 117.00391 79.996094 C 116.55941 80.218344 116.10109 80.387326 115.62695 80.505859 C 115.16764 80.624393 114.62621 80.683594 114.00391 80.683594 C 112.83339 80.683594 111.92146 80.394256 111.26953 79.816406 C 110.6176 79.238556 110.23377 78.431698 110.11523 77.394531 L 117.64844 77.394531 C 117.95959 77.394531 118.20501 77.298085 118.38281 77.105469 C 118.57543 76.912852 118.67188 76.676048 118.67188 76.394531 C 118.67187 75.386998 118.46369 74.461738 118.04883 73.617188 C 117.63396 72.757821 117.02666 72.076032 116.22656 71.572266 C 115.42646 71.053682 114.47729 70.794922 113.38086 70.794922 z M 99.75 70.904297 C 99.468483 70.904297 99.229726 71.009364 99.037109 71.216797 C 98.844493 71.409414 98.748047 71.646218 98.748047 71.927734 L 98.748047 81.462891 C 98.748047 81.744407 98.844493 81.981211 99.037109 82.173828 C 99.229726 82.366445 99.468483 82.462891 99.75 82.462891 C 100.03152 82.462891 100.26832 82.366445 100.46094 82.173828 C 100.66837 81.981211 100.77148 81.744407 100.77148 81.462891 L 100.77148 71.927734 C 100.77148 71.631401 100.67504 71.385976 100.48242 71.193359 C 100.28981 71.000743 100.04633 70.904297 99.75 70.904297 z M 113.38086 72.505859 C 113.88463 72.505859 114.38214 72.624261 114.87109 72.861328 C 115.36004 73.083578 115.76778 73.438784 116.09375 73.927734 C 116.43453 74.416684 116.62547 75.023983 116.66992 75.75 L 110.11523 75.75 C 110.15968 75.023983 110.34396 74.416684 110.66992 73.927734 C 110.99589 73.438784 111.40363 73.083578 111.89258 72.861328 C 112.38153 72.624261 112.87709 72.505859 113.38086 72.505859 z "
       d="m 104.75391,65.644531 c -0.36959,0 -0.72291,0.155534 -0.97657,0.425781 -0.25305,0.255791 -0.39453,0.603088 -0.39453,0.966797 v 14.425782 c 0,0.366122 0.14219,0.716408 0.39844,0.972656 0.25625,0.256241 0.60653,0.398437 0.97266,0.398437 0.36371,0 0.71101,-0.141474 0.96679,-0.394531 0.27027,-0.253657 0.42578,-0.606978 0.42578,-0.976562 V 67.037109 c 0,-0.375084 -0.13632,-0.733986 -0.39648,-0.99414 -0.26015,-0.260149 -0.61938,-0.398438 -0.99609,-0.398438 z m -5.048832,0.333985 c -0.398289,0 -0.778332,0.157238 -1.0625,0.441406 -0.283401,0.283401 -0.443359,0.662661 -0.443359,1.0625 v 0.08984 c 0,0.399839 0.160726,0.777913 0.443359,1.060546 0.283401,0.283402 0.662662,0.44336 1.0625,0.44336 h 0.132813 c 0.399839,0 0.779099,-0.159959 1.062499,-0.44336 0.2834,-0.283401 0.44141,-0.662259 0.44141,-1.060546 v -0.08984 c 0,-0.398287 -0.15724,-0.778331 -0.44141,-1.0625 -0.28417,-0.284168 -0.66421,-0.441406 -1.062499,-0.441406 z m -6.65039,2.443359 c -0.259846,0 -0.467836,0.139711 -0.638672,0.310547 l 0.002,-0.0039 -3.023438,2.955078 0.0332,-0.02734 c -0.202389,0.157413 -0.34375,0.413914 -0.34375,0.671875 0,0.196136 0.07209,0.396657 0.197266,0.546875 a 0.37049768,0.37049768 0 0 0 0.04883,0.04883 c 0.150218,0.125181 0.350739,0.197266 0.546875,0.197266 h 1.207031 v 6.517578 c 0,1.046147 0.301896,1.904711 0.933594,2.476562 0.631699,0.571852 1.544095,0.830078 2.681641,0.830078 0.702579,0 1.373977,-0.146613 2,-0.435546 a 0.37049768,0.37049768 0 0 0 0.01758,-0.0078 c 0.427928,-0.223267 0.708984,-0.644172 0.708984,-1.107422 0,-0.308202 -0.132316,-0.608803 -0.357422,-0.818359 -0.217898,-0.21634 -0.509929,-0.351563 -0.8125,-0.351563 -0.119594,0 -0.230279,0.0074 -0.339843,0.0293 a 0.37049768,0.37049768 0 0 0 -0.01758,0.0039 l -0.177735,0.04492 a 0.37049768,0.37049768 0 0 0 -0.01758,0.0039 c -0.263458,0.07904 -0.521516,0.117187 -0.78125,0.117187 -0.363833,0 -0.643494,-0.06618 -0.857422,-0.175781 -0.09947,-0.06576 -0.216796,-0.275791 -0.216797,-0.787109 v -6.339844 h 2.140625 c 0.331459,0 0.65373,-0.122479 0.884766,-0.353516 a 0.37049768,0.37049768 0 0 0 0.01172,-0.01172 c 0.218921,-0.238823 0.341797,-0.55143 0.341796,-0.873047 0,-0.331459 -0.12248,-0.65373 -0.353515,-0.884765 -0.231036,-0.231037 -0.553307,-0.353516 -0.884766,-0.353516 h -2.140625 v -1.40625 c 0,-0.203527 -0.09508,-0.408157 -0.234375,-0.554687 -0.136176,-0.154714 -0.350391,-0.261719 -0.558593,-0.261719 z m 20.326172,2.001953 c -1.22834,0 -2.29456,0.292904 -3.16406,0.888672 -0.85407,0.585195 -1.49682,1.363135 -1.90821,2.3125 -0.40643,0.937917 -0.60937,1.961325 -0.60937,3.058594 0,1.93334 0.53021,3.49635 1.61523,4.613281 a 0.37049768,0.37049768 0 0 0 0.004,0.0039 c 1.0995,1.099502 2.63012,1.644531 4.50781,1.644531 0.91209,0 1.66885,-0.08445 2.28125,-0.261718 0.59353,-0.171813 1.18916,-0.427218 1.78906,-0.765625 a 0.37049768,0.37049768 0 0 0 0.004,-0.002 c 0.45306,-0.261374 0.76367,-0.670466 0.76367,-1.142578 0,-0.338002 -0.13788,-0.668385 -0.38672,-0.896485 -0.23882,-0.218923 -0.55143,-0.341797 -0.87304,-0.341797 -0.19914,0 -0.3938,0.0426 -0.56641,0.128906 -0.42057,0.210288 -0.85252,0.370358 -1.30078,0.482422 a 0.37049768,0.37049768 0 0 0 -0.002,0 c -0.42001,0.10839 -0.93245,0.166016 -1.53125,0.166016 -1.10947,0 -1.91875,-0.268619 -2.48829,-0.773438 -0.48334,-0.428424 -0.76555,-1.033387 -0.92187,-1.773437 h 7.05469 c 0.38519,0 0.74889,-0.135632 1,-0.404297 0.25305,-0.255785 0.39453,-0.603078 0.39453,-0.966797 -1e-5,-1.057027 -0.22099,-2.041906 -0.66016,-2.9375 l -0.002,-0.002 c -0.44222,-0.914894 -1.10011,-1.655073 -1.95313,-2.193359 -0.86511,-0.560724 -1.89215,-0.837891 -3.04687,-0.837891 z M 99.75,70.533203 c -0.371296,0 -0.724798,0.157388 -0.978516,0.427735 -0.253048,0.255787 -0.394531,0.603082 -0.394531,0.966796 v 9.535157 c 0,0.366128 0.142194,0.716411 0.398438,0.972656 0.25713,0.25713 0.60848,0.398437 0.974609,0.398437 0.36372,0 0.71101,-0.141485 0.9668,-0.394531 0.27025,-0.253656 0.42578,-0.606978 0.42578,-0.976562 v -9.535157 c 0,-0.376709 -0.13828,-0.735937 -0.39844,-0.996093 -0.25927,-0.259276 -0.61743,-0.398438 -0.99414,-0.398438 z m 13.63086,2.34375 c 0.44572,0 0.88437,0.103206 1.32812,0.318359 a 0.37049768,0.37049768 0 0 0 0.01,0.0039 c 0.42421,0.192824 0.77359,0.494378 1.06641,0.933593 a 0.37049768,0.37049768 0 0 0 0.004,0.0059 c 0.23152,0.332187 0.36457,0.758561 0.44141,1.240234 h -5.67774 c 0.0751,-0.484464 0.20375,-0.91303 0.42579,-1.246094 0.29281,-0.439215 0.64219,-0.740769 1.0664,-0.933593 a 0.37049768,0.37049768 0 0 0 0.01,-0.0039 c 0.4441,-0.215322 0.88045,-0.318359 1.32617,-0.318359 z" />
    <g
       aria-label=""
       id="g26550"
       style="font-weight:bold;font-size:22.5778px;line-height:1.25;font-family:'Font Awesome 5 Free';-inkscape-font-specification:'Font Awesome 5 Free Bold';letter-spacing:0px;word-spacing:0px;stroke-width:0.264583"
       transform="matrix(-0.61650642,0.61650642,-0.61650642,-0.61650642,175.4634,74.620702)">
      <path
         d="m 85.247702,68.519299 c -0.529167,-0.396875 -1.234723,-0.220486 -1.543404,0.308681 l -0.705557,1.234724 c -0.264583,0.48507 -0.132291,1.058334 0.264584,1.367015 1.94028,1.45521 2.998614,3.660073 3.042711,5.909034 0,4.18924 -3.395489,7.452438 -7.40834,7.452438 -4.145144,0 -7.452439,-3.307295 -7.408341,-7.408341 0,-2.42535 1.146529,-4.586116 2.998614,-5.953131 0.396875,-0.308681 0.529167,-0.881945 0.264583,-1.367015 L 74.046996,68.82798 c -0.308681,-0.529167 -1.014237,-0.705556 -1.543404,-0.308681 -2.778128,1.984378 -4.586116,5.247575 -4.542019,8.907648 0,5.997229 4.938894,10.936123 10.936123,10.892025 6.041325,0 10.936122,-4.894796 10.936122,-10.936122 0,-3.660073 -1.807988,-6.879173 -4.586116,-8.863551 z m -4.586116,9.216329 V 67.152284 c 0,-0.573264 -0.48507,-1.058334 -1.058334,-1.058334 h -1.411113 c -0.617361,0 -1.058334,0.48507 -1.058334,1.058334 v 10.583344 c 0,0.617362 0.440973,1.058335 1.058334,1.058335 h 1.411113 c 0.573264,0 1.058334,-0.440973 1.058334,-1.058335 z"
         id="path26548" />
    </g>
  </g>
</svg>
